<?xml version="1.0" standalone="no"?><svg xmlns="http://www.w3.org/2000/svg" viewBox="0 0 1440 320"><path fill="#f3f4f5" fill-opacity="1" d="M0,224L10,208C20,192,40,160,60,160C80,160,100,192,120,202.7C140,213,160,203,180,176C200,149,220,107,240,122.7C260,139,280,213,300,234.7C320,256,340,224,360,186.7C380,149,400,107,420,122.7C440,139,460,213,480,240C500,267,520,245,540,213.3C560,181,580,139,600,133.3C620,128,640,160,660,197.3C680,235,700,277,720,266.7C740,256,760,192,780,170.7C800,149,820,171,840,176C860,181,880,171,900,170.7C920,171,940,181,960,176C980,171,1000,149,1020,128C1040,107,1060,85,1080,85.3C1100,85,1120,107,1140,133.3C1160,160,1180,192,1200,186.7C1220,181,1240,139,1260,133.3C1280,128,1300,160,1320,176C1340,192,1360,192,1380,170.7C1400,149,1420,107,1430,85.3L1440,64L1440,320L1430,320C1420,320,1400,320,1380,320C1360,320,1340,320,1320,320C1300,320,1280,320,1260,320C1240,320,1220,320,1200,320C1180,320,1160,320,1140,320C1120,320,1100,320,1080,320C1060,320,1040,320,1020,320C1000,320,980,320,960,320C940,320,920,320,900,320C880,320,860,320,840,320C820,320,800,320,780,320C760,320,740,320,720,320C700,320,680,320,660,320C640,320,620,320,600,320C580,320,560,320,540,320C520,320,500,320,480,320C460,320,440,320,420,320C400,320,380,320,360,320C340,320,320,320,300,320C280,320,260,320,240,320C220,320,200,320,180,320C160,320,140,320,120,320C100,320,80,320,60,320C40,320,20,320,10,320L0,320Z"></path></svg>